<svg id="Layer_1" data-name="Layer 1" xmlns="http://www.w3.org/2000/svg" viewBox="0 0 346.51 144.53"><path d="M940,412.82q4.57,4.37,4.58,14.41v29.61a4,4,0,0,1-1.14,2.86,3.76,3.76,0,0,1-2.82,1.19,4.06,4.06,0,0,1-4.06-4.05V427.23q0-6.69-2.46-9.21a9.36,9.36,0,0,0-7-2.51H912.5a18.92,18.92,0,0,0-1.41,5.86c-.18,2.09-.27,4.8-.27,8.15v27.41a3.31,3.31,0,0,1-1.06,2.51,3.52,3.52,0,0,1-2.55,1H896.1a3.61,3.61,0,0,1-3.52-3.52,3.31,3.31,0,0,1,1.06-2.51,3.42,3.42,0,0,1,2.46-1h6.7V429.17q0-8.64,2.29-13.66h-4.84a3.84,3.84,0,0,1-2.69-1,3.43,3.43,0,0,1,0-5,3.84,3.84,0,0,1,2.69-1h26.87Q935.42,408.46,940,412.82Z" transform="translate(-812.5 -407.93)"/><path d="M960.48,534.7a3.9,3.9,0,0,1-1.19-2.86V412.16a4,4,0,0,1,1.15-2.86,3.72,3.72,0,0,1,2.81-1.19,4.06,4.06,0,0,1,4.06,4.05V531.84a3.94,3.94,0,0,1-1.15,2.86,3.73,3.73,0,0,1-2.82,1.19A3.87,3.87,0,0,1,960.48,534.7Z" transform="translate(-812.5 -407.93)"/><path d="M981.4,459.44a3.41,3.41,0,0,1,0-5,3.8,3.8,0,0,1,2.69-1h4c2.47,0,4.21-.82,5.24-2.46s1.54-4.44,1.54-8.38V415.51h-6.6a3.84,3.84,0,0,1-2.69-1,3.43,3.43,0,0,1,0-5,3.84,3.84,0,0,1,2.69-1h9.34a5.57,5.57,0,0,1,3.74,1.32,4.21,4.21,0,0,1,1.54,3.35v29.43a30.65,30.65,0,0,1-1.45,10.49,10.22,10.22,0,0,1-4.67,5.64,18.08,18.08,0,0,1-8.68,1.76h-4A3.8,3.8,0,0,1,981.4,459.44Z" transform="translate(-812.5 -407.93)"/><path d="M1019,459.75a3.83,3.83,0,0,1-1.14-2.82V412.07a4,4,0,0,1,1.14-2.86,3.79,3.79,0,0,1,2.82-1.19,4.06,4.06,0,0,1,4.06,4.05v4.06a30.52,30.52,0,0,1,9.25-5.73,29.28,29.28,0,0,1,11.54-2.47q8.64,0,13.09,5.29t4.45,15.6v28.11a3.5,3.5,0,0,1-.93,2.6,3.6,3.6,0,0,1-2.68.92h-19.83a3.6,3.6,0,0,1-3.53-3.52,3.35,3.35,0,0,1,1.06-2.51,3.46,3.46,0,0,1,2.47-1h15.42V429.7a29.94,29.94,0,0,0-1-8.77,7.5,7.5,0,0,0-3.35-4.45,13.5,13.5,0,0,0-6.57-1.32,24.56,24.56,0,0,0-10.57,2.69,29.4,29.4,0,0,0-8.81,6v33.05a3.76,3.76,0,0,1-1.19,2.82,4,4,0,0,1-2.87,1.14A3.86,3.86,0,0,1,1019,459.75Z" transform="translate(-812.5 -407.93)"/><path d="M1104.55,409.47a3.51,3.51,0,0,1,0,5,3.57,3.57,0,0,1-2.55,1h-6.26q-3.18,4.67-3.17,14.54v26.88a3.76,3.76,0,0,1-1.19,2.82,4,4,0,0,1-2.87,1.14,3.89,3.89,0,0,1-4-4V429.7q0-9.6,3.78-14.19h-9.42a3.52,3.52,0,0,1-2.47-6,3.47,3.47,0,0,1,2.47-1H1102A3.57,3.57,0,0,1,1104.55,409.47Z" transform="translate(-812.5 -407.93)"/><path d="M1152.18,459.7a3.9,3.9,0,0,1-1.19-2.86V427.23a15.43,15.43,0,0,0-1.41-7.27,7.91,7.91,0,0,0-4.58-3.7,27.78,27.78,0,0,0-8.81-1.1A101,101,0,0,0,1118,417.1a3.72,3.72,0,0,1-2.77-.58,3.24,3.24,0,0,1-.8-4.89,4.35,4.35,0,0,1,2.43-1.5q4.75-1,10-1.49a95.2,95.2,0,0,1,9.61-.53q8.19,0,13.08,1.94a13.32,13.32,0,0,1,7.14,6.12q2.25,4.18,2.25,11.06v29.61a3.94,3.94,0,0,1-1.15,2.86,3.73,3.73,0,0,1-2.82,1.19A3.87,3.87,0,0,1,1152.18,459.7Zm-34.81,0a3.9,3.9,0,0,1-1.19-2.86v-23.7a4,4,0,0,1,1.15-2.87,3.76,3.76,0,0,1,2.82-1.19,4.06,4.06,0,0,1,4,4.06v23.7a3.94,3.94,0,0,1-1.15,2.86,3.72,3.72,0,0,1-2.81,1.19A3.88,3.88,0,0,1,1117.37,459.7Z" transform="translate(-812.5 -407.93)"/><path d="M813.18,550.31a3.83,3.83,0,0,1-.68-2.25V486.79a4,4,0,0,1,1.15-2.87,3.86,3.86,0,0,1,3.26-1.17,3.81,3.81,0,0,1,2.08.86,4,4,0,0,1,1.53,3.18S820,537.88,820,540s0,6,2,6h203a4,4,0,0,1,4,4v2l-212.44.09A4.07,4.07,0,0,1,813.18,550.31Z" transform="translate(-812.5 -407.93)"/><path d="M836.27,512.41a3.77,3.77,0,0,1-.68-2.24V486.79a4,4,0,0,1,1.15-2.87,3.86,3.86,0,0,1,3.26-1.17,3.81,3.81,0,0,1,2.08.86,4,4,0,0,1,1.53,3.18v23.35a3.94,3.94,0,0,1-1.15,2.86,3.73,3.73,0,0,1-2.82,1.19A4,4,0,0,1,836.27,512.41Z" transform="translate(-812.5 -407.93)"/><path d="M858.74,512.41a3.77,3.77,0,0,1-.68-2.24V486.79a4,4,0,0,1,1.15-2.87,3.86,3.86,0,0,1,3.26-1.17,3.81,3.81,0,0,1,2.08.86,4,4,0,0,1,1.53,3.18v23.35a3.94,3.94,0,0,1-1.15,2.86,3.73,3.73,0,0,1-2.82,1.19A4,4,0,0,1,858.74,512.41Z" transform="translate(-812.5 -407.93)"/><path d="M888.77,533.32a4,4,0,0,1-.57-2,5,5,0,0,1,.44-1.94L908,490.14H881.24a4.3,4.3,0,0,1-3-.89,3.84,3.84,0,0,1-.93-2.9v-11.9a3.94,3.94,0,0,1,1.15-2.86,3.53,3.53,0,0,1,2.64-1.19,3.79,3.79,0,0,1,2.89,1.4,4,4,0,0,1,1,2.65v8.64H911.2a4.81,4.81,0,0,1,3.66,1.54,5.48,5.48,0,0,1,1.45,3.92,7.94,7.94,0,0,1-.88,3.61L895.6,533.05a3.82,3.82,0,0,1-3.52,2.2,3.52,3.52,0,0,1-1.77-.44A4,4,0,0,1,888.77,533.32Z" transform="translate(-812.5 -407.93)"/><path d="M923.23,534.06a3.28,3.28,0,0,1-1.08-2.92,3.09,3.09,0,0,1,.77-1.78,3.83,3.83,0,0,1,3-1.33H930c2.47,0,4.21-.82,5.24-2.47s1.54-4.43,1.54-8.37V490.14h-6.6a3.85,3.85,0,0,1-3-1.34,3.14,3.14,0,0,1-.76-1.78,3.29,3.29,0,0,1,1.08-2.92,3.8,3.8,0,0,1,2.69-1h9.34a5.53,5.53,0,0,1,4.06,1.61,4.39,4.39,0,0,1,1.22,3.15v29.34a30.69,30.69,0,0,1-1.45,10.49,10.29,10.29,0,0,1-4.67,5.64,18.2,18.2,0,0,1-8.68,1.76h-4.05A3.8,3.8,0,0,1,923.23,534.06Z" transform="translate(-812.5 -407.93)"/><path d="M1028.4,531.38a3.92,3.92,0,0,1-1.5,3.17,3.14,3.14,0,0,1-2.2.79,4.3,4.3,0,0,1-3.35-1.49l-24.41-28.29-8.37,27.23a3.1,3.1,0,0,1-1.37,1.94,4.38,4.38,0,0,1-2.33.61,4,4,0,0,1-2.91-1.05,3.63,3.63,0,0,1-1.06-2.65,3.79,3.79,0,0,1,.27-1.5L991,498.77l-8.29-9.6a3.7,3.7,0,0,1-.88-2.56,3.8,3.8,0,0,1,1.24-2.91,4.22,4.22,0,0,1,2.64-1,3.92,3.92,0,0,1,3.08,1.41L1010,508.55,1020.91,485a3.47,3.47,0,0,1,3.44-2.2,5.17,5.17,0,0,1,1.94.44,3.45,3.45,0,0,1,2.11,3.26,4.62,4.62,0,0,1-.53,2.12l-12.51,26.26,12.16,14A3.53,3.53,0,0,1,1028.4,531.38Z" transform="translate(-812.5 -407.93)"/><path d="M1088.24,510.2a2.5,2.5,0,0,1,3.46-1.35,2.59,2.59,0,0,1,1.16,3.25l-6.82,18,33.57,22.36-12.37-77.39a3.25,3.25,0,0,0-5.27-2l-60.56,49.74,39.95,5.52Z" transform="translate(-812.5 -407.93)"/></svg>